<svg xmlns="http://www.w3.org/2000/svg" aria-hidden="true" style="position:absolute;width:0;height:0;overflow:hidden">
  <defs>
    <symbol id="icon-twitter" viewBox="0 0 32 32">
      <path d="M32 16c0 4.418-1.791 8.418-4.686 11.314S20.419 32 16 32c-4.418 0-8.418-1.791-11.314-4.686S0 20.419 0 16c0-4.418 1.791-8.418 4.686-11.314S11.581 0 16 0c4.418 0 8.418 1.791 11.314 4.686S32 11.581 32 16z"/>
      <path d="M22.4 12.031a5.455 5.455 0 0 1-1.512.414 2.608 2.608 0 0 0 1.154-1.45 5.245 5.245 0 0 1-1.664.635 2.623 2.623 0 0 0-4.539 1.795c0 .208.018.408.061.598a7.426 7.426 0 0 1-5.409-2.745 2.628 2.628 0 0 0 .807 3.507 2.591 2.591 0 0 1-1.186-.323v.029c0 1.275.91 2.334 2.102 2.578a2.636 2.636 0 0 1-.688.086c-.168 0-.338-.01-.497-.045a2.65 2.65 0 0 0 2.452 1.828 5.275 5.275 0 0 1-3.882 1.083 7.384 7.384 0 0 0 4.026 1.178c4.829 0 7.469-4 7.469-7.467a6.24 6.24 0 0 0-.01-.339c.521-.37.958-.831 1.315-1.362z"/>
    </symbol>
    <symbol id="icon-linkedin" viewBox="0 0 32 32">
      <path d="M32 16c0 4.418-1.791 8.418-4.686 11.314S20.419 32 16 32c-4.418 0-8.418-1.791-11.314-4.686S0 20.419 0 16c0-4.418 1.791-8.418 4.686-11.314S11.581 0 16 0c4.418 0 8.418 1.791 11.314 4.686S32 11.581 32 16z"/>
      <path d="M22.397 22.4v-.001h.003v-4.694c0-2.297-.494-4.066-3.179-4.066-1.291 0-2.157.708-2.51 1.38h-.037v-1.165h-2.546V22.4h2.651v-4.231c0-1.114.211-2.192 1.591-2.192 1.36 0 1.38 1.272 1.38 2.263v4.161h2.648zM9.811 13.854h2.654V22.4H9.811v-8.546zM11.137 9.6c-.849 0-1.537.688-1.537 1.537s.688 1.551 1.537 1.551 1.537-.703 1.537-1.551S11.985 9.6 11.137 9.6z"/>
    </symbol>
    <symbol id="icon-instagram" viewBox="0 0 32 32">
      <path d="M29.333 13.333c0 3.682-1.492 7.015-3.905 9.428S19.682 26.666 16 26.666c-3.682 0-7.015-1.492-9.428-3.905s-3.905-5.746-3.905-9.428 1.492-7.015 3.905-9.428C8.985 1.492 12.318 0 16 0s7.015 1.492 9.428 3.905a13.29 13.29 0 0 1 3.905 9.428z"/>
      <path d="M21.323 11.136c-.025-.567-.117-.956-.248-1.294a2.603 2.603 0 0 0-.617-.946 2.638 2.638 0 0 0-.944-.615c-.34-.131-.727-.223-1.294-.248-.571-.027-.752-.033-2.2-.033s-1.629.006-2.198.031c-.567.025-.956.117-1.294.248a2.603 2.603 0 0 0-.946.617c-.271.267-.481.59-.615.944-.131.34-.223.727-.248 1.294-.027.571-.033.752-.033 2.2s.006 1.629.031 2.198c.025.567.117.956.248 1.294.135.358.346.679.617.946.267.271.59.481.944.615.34.131.727.223 1.294.248.569.025.75.031 2.198.031s1.629-.006 2.198-.031c.567-.025.956-.117 1.294-.248a2.727 2.727 0 0 0 1.561-1.561c.131-.34.223-.727.248-1.294.025-.569.031-.75.031-2.198s-.002-1.629-.027-2.198zm-.961 4.355c-.023.521-.11.802-.183.99a1.767 1.767 0 0 1-1.013 1.013c-.188.073-.471.16-.99.183-.563.025-.731.031-2.155.031s-1.594-.006-2.155-.031c-.521-.023-.802-.11-.99-.183a1.642 1.642 0 0 1-.613-.398 1.65 1.65 0 0 1-.398-.613c-.073-.188-.16-.471-.183-.99-.025-.563-.031-.731-.031-2.155s.006-1.594.031-2.155c.023-.521.11-.802.183-.99.085-.231.221-.442.4-.613a1.65 1.65 0 0 1 .613-.398c.188-.073.471-.16.99-.183.563-.025.731-.031 2.155-.031s1.594.006 2.155.031c.521.023.802.11.99.183.231.085.442.221.613.398.177.173.313.381.398.613.073.188.16.471.183.99.025.563.031.731.031 2.155s-.006 1.59-.031 2.152z"/>
      <path d="M16.02 10.594a2.74 2.74 0 1 0 0 5.48 2.74 2.74 0 0 0 0-5.48zm0 4.518a1.778 1.778 0 1 1 .001-3.555 1.778 1.778 0 0 1-.001 3.555zM19.508 10.486a.64.64 0 1 1-1.28 0 .64.64 0 0 1 1.28 0z"/>
    </symbol>
    <symbol id="icon-facebook" viewBox="0 0 32 32">
      <path d="M29.333 13.333c0 3.682-1.492 7.015-3.905 9.428S19.682 26.666 16 26.666c-3.682 0-7.015-1.492-9.428-3.905s-3.905-5.746-3.905-9.428 1.492-7.015 3.905-9.428C8.985 1.492 12.318 0 16 0s7.015 1.492 9.428 3.905a13.29 13.29 0 0 1 3.905 9.428z"/>
      <path d="M17.776 9.771h.974V8.075A12.618 12.618 0 0 0 17.331 8c-1.404 0-2.366.883-2.366 2.506V12h-1.549v1.896h1.549v4.771h1.9v-4.77h1.487l.236-1.896h-1.723v-1.306c0-.548.148-.923.912-.923z"/>
    </symbol>
  </defs>
</svg>
